G04 Layer: TopLayer*
G04 EasyEDA v6.5.23, 2023-06-30 18:48:12*
G04 ce63e0724e664fe1a00c4e868be84300,cc60af95848b4e47b89df648a6ada5ad,10*
G04 Gerber Generator version 0.2*
G04 Scale: 100 percent, Rotated: No, Reflected: No *
G04 Dimensions in millimeters *
G04 leading zeros omitted , absolute positions ,4 integer and 5 decimal *
%FSLAX45Y45*%
%MOMM*%

%ADD10C,1.0000*%
%ADD11C,1.5240*%
%ADD12C,1.7000*%
%ADD13R,1.7000X1.5748*%
%ADD14R,2.5400X2.5400*%
%ADD15C,2.0000*%
%ADD16R,2.0000X2.0000*%

%LPD*%
D10*
X5918200Y2565400D02*
G01*
X6413500Y2565400D01*
X5918200Y3327400D02*
G01*
X6413500Y3327400D01*
X5918200Y3581400D02*
G01*
X6413500Y3581400D01*
X5918200Y3835400D02*
G01*
X6413500Y3835400D01*
X5918200Y4089400D02*
G01*
X6413500Y4089400D01*
X5918200Y4343400D02*
G01*
X6413500Y4343400D01*
X5918200Y4610100D02*
G01*
X6400800Y4610100D01*
X6413500Y4597400D01*
X5918200Y4851400D02*
G01*
X6413500Y4851400D01*
D11*
G01*
X5270500Y1892300D03*
G01*
X5270245Y2146045D03*
G01*
X5270245Y2400045D03*
G01*
X5270245Y2654045D03*
G01*
X5270245Y2908045D03*
G01*
X5270245Y3162045D03*
G01*
X5270245Y3416045D03*
G01*
X5270245Y3670045D03*
G01*
X5270245Y3924045D03*
G01*
X5270245Y4178045D03*
G01*
X5270245Y4432045D03*
G01*
X5270245Y4686045D03*
G01*
X5270245Y4940045D03*
G01*
X5270245Y5194045D03*
G01*
X5270245Y5448045D03*
G01*
X2984245Y5448045D03*
G01*
X2984245Y5194045D03*
G01*
X2984245Y4940045D03*
G01*
X2984245Y4686045D03*
G01*
X2984245Y4432045D03*
G01*
X2984245Y4178045D03*
G01*
X2984245Y3924045D03*
G01*
X2984245Y3670045D03*
G01*
X2984245Y3416045D03*
G01*
X2984245Y3162045D03*
G01*
X2984245Y2908045D03*
G01*
X2984245Y2654045D03*
G01*
X2984245Y2400045D03*
G01*
X2984245Y2146045D03*
G01*
X2984245Y1892045D03*
D12*
G01*
X6413500Y2565400D03*
G01*
X6413500Y2819400D03*
G01*
X6413500Y3073400D03*
G01*
X6413500Y3327400D03*
G01*
X6413500Y3581400D03*
G01*
X6413500Y3835400D03*
G01*
X6413500Y4089400D03*
G01*
X6413500Y4343400D03*
G01*
X6413500Y4597400D03*
D13*
G01*
X6413500Y4851400D03*
D14*
G01*
X445414Y1644497D03*
G01*
X445414Y5594502D03*
G01*
X2145411Y5594502D03*
G01*
X2145411Y1644497D03*
D15*
G01*
X1494586Y711200D03*
D16*
G01*
X994613Y711200D03*
D10*
G01*
X1421256Y6007100D03*
G01*
X1271143Y6007100D03*
G01*
X5918200Y4610100D03*
G01*
X5918200Y4343400D03*
G01*
X5918200Y4089400D03*
G01*
X5918200Y3835400D03*
G01*
X5918200Y3581400D03*
G01*
X5918200Y3327400D03*
G01*
X5918200Y2565400D03*
G01*
X5918200Y4851400D03*
M02*
